<svg width="616" height="92" viewBox="0 0 616 92" fill="none" xmlns="http://www.w3.org/2000/svg">
<g clip-path="url(#clip0_84_2615)">
<path d="M89.5449 39.5606L75.5653 39.5606L75.5645 14.3438L50.0985 14.3438L50.0985 0.0820331L78.0432 0.0820312C84.3956 0.0820315 89.5451 5.39513 89.5449 11.949V39.5606Z" fill="#6AE7E7"></path>
<rect width="16.8036" height="27.9815" transform="matrix(0.70575 0.708461 -0.70575 0.708461 69.7285 7.81445)" fill="#6AE7E7"></rect>
<path d="M39.8125 89.9274L25.5471 89.9274L25.5471 64.4484L0.00439518 64.4484L0.00439453 49.8984L28.0765 49.8984C34.5588 49.8984 39.8136 55.3189 39.8134 62.0053L39.8125 89.9274Z" fill="#010D07"></path>
<rect width="17.0532" height="28.1734" transform="matrix(0.703248 0.710945 -0.703248 0.710945 19.8169 57.8477)" fill="#010D07"></rect>
<path d="M39.8174 0.00252151L25.8702 0.00252533L25.8701 25.2642L6.31647e-07 25.3196L0 39.6152L28.3431 39.5599C34.6807 39.5599 39.8183 34.2341 39.8181 27.6647L39.8174 0.00252151Z" fill="#010D07"></path>
<rect width="16.8043" height="27.9828" transform="matrix(0.704087 -0.710114 -0.704087 -0.710114 20.0522 31.8027)" fill="#010D07"></rect>
<path d="M50.1259 89.9458L64.2539 89.9458V64.4576L89.5503 64.4576L89.5503 49.9023L61.7488 49.9023C55.329 49.9023 50.1248 55.3248 50.125 62.0136L50.1259 89.9458Z" fill="#010D07"></path>
<rect width="17.0387" height="28.0344" transform="matrix(-0.701101 0.713062 0.701101 0.713062 69.8862 57.7949)" fill="#010D07"></rect>
</g>
<g clip-path="url(#clip1_84_2615)">
<path d="M598.354 44.3791C601.625 36.9657 608.275 34.2402 615.143 34.2402V46.9956C607.403 46.4505 598.354 50.0481 598.354 62.2584V89.7314H586.58V35.2214H598.354V44.3791Z" fill="#010D07"></path>
<path d="M549.333 91.1473C533.416 91.1473 520.551 78.61 520.551 62.475C520.551 46.231 533.416 33.8027 549.333 33.8027C565.358 33.8027 578.114 46.231 578.114 62.475C578.114 78.61 565.358 91.1473 549.333 91.1473ZM549.333 79.7002C558.926 79.7002 566.34 72.3958 566.34 62.475C566.34 52.5542 558.926 45.2498 549.333 45.2498C539.739 45.2498 532.325 52.5542 532.325 62.475C532.325 72.3958 539.739 79.7002 549.333 79.7002Z" fill="#010D07"></path>
<path d="M522.229 89.73H508.165L485.816 64.5464V89.73H474.042V13.416H485.816V59.3134L506.966 35.22H521.357L497.373 61.9299L522.229 89.73Z" fill="#010D07"></path>
<path d="M439.041 91.1485C423.996 91.1485 413.639 83.7352 409.605 72.3971L420.398 66.0739C423.124 73.8143 429.011 78.9383 439.368 78.9383C449.289 78.9383 453.541 74.4685 453.541 68.9084C453.541 62.1492 447.544 59.8598 436.206 56.3711C424.323 52.7735 412.767 48.4127 412.767 34.022C412.767 19.9585 424.432 12 437.297 12C449.834 12 459.101 18.6502 463.897 28.7891L453.322 34.8942C450.597 28.7891 445.8 24.2102 437.297 24.2102C429.992 24.2102 425.304 27.9169 425.304 33.695C425.304 39.5821 429.556 42.0895 440.676 45.5782C453.322 49.6119 466.078 53.5366 466.078 68.6904C466.078 82.645 454.958 91.1485 439.041 91.1485Z" fill="#010D07"></path>
<path d="M404.91 46.5579H391.391V72.7227C391.391 79.7 395.97 79.591 404.91 79.1549V89.7298C386.813 91.9102 379.617 86.8953 379.617 72.7227V46.5579H369.587V35.2198H379.617V23.4457L391.391 19.957V35.2198H404.91V46.5579Z" fill="#010D07"></path>
<path d="M349.801 44.3791C353.072 36.9657 359.722 34.2402 366.59 34.2402V46.9956C358.85 46.4505 349.801 50.0481 349.801 62.2584V89.7314H338.027V35.2214H349.801V44.3791Z" fill="#010D07"></path>
<path d="M314.709 35.22H326.484V89.73H314.709V81.8806C310.567 87.6586 304.134 91.1473 295.631 91.1473C280.804 91.1473 268.485 78.61 268.485 62.475C268.485 46.231 280.804 33.8027 295.631 33.8027C304.134 33.8027 310.567 37.2914 314.709 42.9604V35.22ZM297.484 79.9182C307.296 79.9182 314.709 72.6139 314.709 62.475C314.709 52.3361 307.296 45.0318 297.484 45.0318C287.672 45.0318 280.259 52.3361 280.259 62.475C280.259 72.6139 287.672 79.9182 297.484 79.9182Z" fill="#010D07"></path>
<path d="M240.512 33.8027C252.831 33.8027 261.117 42.3063 261.117 55.9338V89.73H249.343V56.6969C249.343 49.0655 245.2 44.8138 238.768 44.8138C231.791 44.8138 226.885 49.2836 226.885 59.2044V89.73H215.111V56.6969C215.111 49.0655 211.295 44.8138 204.863 44.8138C198.212 44.8138 192.761 49.2836 192.761 59.2044V89.73H180.987V35.22H192.761V41.7612C196.25 36.4192 201.592 33.8027 208.351 33.8027C215.438 33.8027 220.671 36.9643 223.832 42.4153C227.43 36.7463 233.208 33.8027 240.512 33.8027Z" fill="#010D07"></path>
<path d="M145.986 91.1485C130.941 91.1485 120.584 83.7352 116.55 72.3971L127.343 66.0739C130.069 73.8143 135.956 78.9383 146.313 78.9383C156.234 78.9383 160.485 74.4685 160.485 68.9084C160.485 62.1492 154.489 59.8598 143.151 56.3711C131.268 52.7735 119.712 48.4127 119.712 34.022C119.712 19.9585 131.377 12 144.241 12C156.779 12 166.045 18.6502 170.842 28.7891L160.267 34.8942C157.542 28.7891 152.745 24.2102 144.241 24.2102C136.937 24.2102 132.249 27.9169 132.249 33.695C132.249 39.5821 136.501 42.0895 147.621 45.5782C160.267 49.6119 173.023 53.5366 173.023 68.6904C173.023 82.645 161.903 91.1485 145.986 91.1485Z" fill="#010D07"></path>
</g>
<defs>
<clipPath id="clip0_84_2615">
<rect width="89.5502" height="90" fill="white"></rect>
</clipPath>
<clipPath id="clip1_84_2615">
<rect width="498.593" height="91.1485" fill="white" transform="translate(116.55)"></rect>
</clipPath>
</defs>
</svg>